<svg xmlns="http://www.w3.org/2000/svg" viewBox="0 0 24 24"><path d="M14.125 1.9375C12.9375 2.019531 11.96875 2.582031 11.40625 3.375C11.300781 3.527344 11.210938 3.683594 11.125 3.84375C10.769531 3.417969 10.367188 3.050781 9.9375 2.78125C9.320313 2.390625 8.644531 2.167969 7.90625 2.25C7.167969 2.332031 6.4375 2.824219 6.09375 3.5625C5.785156 4.21875 5.84375 4.894531 6 5.53125C6.117188 6.007813 6.300781 6.496094 6.53125 6.96875C6.160156 6.914063 5.789063 6.871094 5.40625 6.875C4.617188 6.882813 3.808594 7.046875 3.125 7.5625C2.441406 8.078125 2 8.980469 2 10C2 11.320313 2.851563 12.292969 3.75 12.75C3.285156 13.363281 3 14.136719 3 15C3 15.785156 3.621094 16.511719 4.21875 16.75C4.816406 16.988281 5.414063 17 6 17C6.085938 17 6.167969 16.972656 6.25 16.96875C5.980469 17.753906 5.914063 18.582031 6.0625 19.34375C6.191406 20.019531 6.503906 20.652344 7 21.15625C7.496094 21.660156 8.210938 22 9 22C10.5625 22 11.753906 21.214844 12.34375 20.25C12.425781 20.117188 12.46875 19.976563 12.53125 19.84375C12.84375 20.171875 13.171875 20.46875 13.53125 20.65625C14.480469 21.152344 15.582031 21.050781 16.34375 20.5C17.121094 19.9375 17.578125 19.007813 17.59375 17.96875C18.273438 18.125 18.96875 18.101563 19.59375 17.90625C20.960938 17.476563 22 16.160156 22 14.53125C22 13.144531 21.265625 12.023438 20.34375 11.375C20.433594 11.308594 20.542969 11.257813 20.625 11.1875C21.308594 10.609375 21.707031 9.863281 21.71875 9.09375C21.738281 7.558594 20.347656 6.367188 18.75 6.4375C18.441406 6.449219 18.15625 6.511719 17.875 6.5625C17.9375 6.148438 17.964844 5.726563 17.9375 5.28125C17.894531 4.613281 17.722656 3.925781 17.3125 3.3125C16.902344 2.699219 16.21875 2.199219 15.375 2.03125C14.9375 1.945313 14.519531 1.910156 14.125 1.9375 Z M 14.21875 3.875C14.425781 3.875 14.671875 3.910156 14.96875 3.96875C15.332031 4.042969 15.503906 4.179688 15.65625 4.40625C15.808594 4.632813 15.910156 4.996094 15.9375 5.40625C15.988281 6.222656 15.539063 7.242188 15.46875 7.3125C15.070313 7.710938 14.960938 7.820313 14.6875 8.09375C14.613281 8.15625 14.550781 8.230469 14.5 8.3125C14.285156 8.527344 13.878906 8.898438 13.78125 9C13.453125 8.800781 13.101563 8.644531 12.71875 8.5625C12.683594 8.320313 12.539063 7.457031 12.46875 6.96875C12.472656 6.917969 12.472656 6.863281 12.46875 6.8125C12.46875 5.980469 12.664063 5.046875 13.03125 4.53125C13.304688 4.144531 13.59375 3.878906 14.21875 3.875 Z M 8.125 4.21875C8.246094 4.207031 8.535156 4.253906 8.875 4.46875C9.550781 4.894531 10.320313 5.910156 10.5 7.125C10.5 7.132813 10.5 7.148438 10.5 7.15625C10.5625 7.597656 10.679688 8.445313 10.71875 8.75C10.625 8.789063 10.527344 8.828125 10.4375 8.875C10.40625 8.855469 10.40625 8.867188 10.375 8.84375C10.34375 8.824219 10.3125 8.804688 10.28125 8.78125C9.648438 8.136719 8.992188 7.289063 8.53125 6.46875C8.242188 5.953125 8.03125 5.449219 7.9375 5.0625C7.84375 4.675781 7.894531 4.464844 7.90625 4.4375C8.003906 4.226563 8.003906 4.230469 8.125 4.21875 Z M 18.84375 8.4375C19.460938 8.410156 19.722656 8.78125 19.71875 9.0625C19.71875 9.203125 19.679688 9.402344 19.34375 9.6875C19.007813 9.972656 18.359375 10.289063 17.3125 10.5C17.175781 10.519531 17.074219 10.535156 16.90625 10.5625C16.882813 10.566406 16.871094 10.558594 16.84375 10.5625C16.8125 10.570313 16.78125 10.582031 16.75 10.59375C16.109375 10.691406 15.722656 10.742188 15.25 10.8125C15.210938 10.707031 15.171875 10.601563 15.125 10.5C15.207031 10.417969 15.648438 9.953125 15.90625 9.6875C15.917969 9.675781 15.925781 9.667969 15.9375 9.65625C17.105469 8.730469 17.585938 8.492188 18.84375 8.4375 Z M 5.4375 8.875C6.460938 8.863281 7.855469 9.402344 8.21875 9.71875C8.414063 9.886719 8.628906 10.03125 8.84375 10.1875C8.875 10.21875 8.90625 10.25 8.9375 10.28125C8.871094 10.394531 8.835938 10.535156 8.78125 10.65625C8.335938 10.707031 7.578125 10.804688 6.375 11.125C6.363281 11.128906 6.355469 11.152344 6.34375 11.15625C6.292969 11.167969 6.238281 11.171875 6.1875 11.1875C5.828125 11.230469 5.140625 11.195313 4.6875 11C4.214844 10.796875 4 10.644531 4 10C4 9.464844 4.109375 9.308594 4.3125 9.15625C4.515625 9.003906 4.925781 8.882813 5.4375 8.875 Z M 11.96875 10.5C12.8125 10.5 13.46875 11.152344 13.46875 12C13.46875 12.847656 12.8125 13.5 11.96875 13.5C11.125 13.5 10.46875 12.847656 10.46875 12C10.46875 11.578125 10.636719 11.207031 10.90625 10.9375C10.960938 10.902344 11.015625 10.859375 11.0625 10.8125C11.074219 10.804688 11.082031 10.789063 11.09375 10.78125C11.105469 10.769531 11.113281 10.761719 11.125 10.75C11.363281 10.589844 11.652344 10.5 11.96875 10.5 Z M 17.5625 12.53125C18.046875 12.554688 18.628906 12.710938 19.0625 12.96875C19.640625 13.3125 20 13.730469 20 14.53125C20 15.375 19.605469 15.808594 19 16C18.394531 16.191406 17.519531 16.050781 16.71875 15.25C16.707031 15.238281 16.699219 15.230469 16.6875 15.21875C16.5 15.054688 16.515625 15.089844 16.34375 14.9375C16.324219 14.914063 16.304688 14.894531 16.28125 14.875C15.632813 14.308594 15.308594 14.019531 15 13.75C15.164063 13.46875 15.296875 13.167969 15.375 12.84375C15.792969 12.769531 16.277344 12.671875 16.96875 12.5625C17.035156 12.550781 17.0625 12.574219 17.125 12.5625C17.257813 12.542969 17.402344 12.523438 17.5625 12.53125 Z M 10.25 15.0625C10.253906 15.058594 10.277344 15.066406 10.28125 15.0625C10.460938 15.160156 10.648438 15.246094 10.84375 15.3125C10.851563 15.636719 10.875 16 10.96875 16.5625C10.976563 16.710938 10.992188 16.878906 11 17C11.019531 17.261719 11.035156 17.550781 11.03125 17.4375C11.042969 18 10.914063 18.746094 10.625 19.21875C10.335938 19.691406 9.988281 20 9 20C8.726563 20 8.566406 19.914063 8.40625 19.75C8.246094 19.585938 8.101563 19.328125 8.03125 18.96875C7.894531 18.25 8.125 17.3125 8.71875 16.71875C9.191406 16.246094 9.84375 15.503906 10.25 15.0625 Z M 13.53125 15.125C13.769531 15.328125 14.210938 15.695313 14.84375 16.25C14.851563 16.269531 14.863281 16.292969 14.875 16.3125C16.039063 17.550781 15.613281 18.566406 15.1875 18.875C14.976563 19.027344 14.785156 19.085938 14.4375 18.90625C14.101563 18.730469 13.570313 18.152344 13.125 17.03125C13.121094 17.019531 13.128906 17.011719 13.125 17C13.027344 16.6875 12.984375 16.289063 12.9375 15.90625C12.921875 15.714844 12.894531 15.550781 12.875 15.375C13.105469 15.3125 13.320313 15.230469 13.53125 15.125Z"/></svg>